<svg version="1.1" id="Layer_1" xmlns="http://www.w3.org/2000/svg" xmlns:xlink="http://www.w3.org/1999/xlink" x="0px" y="0px"
	 width="100%" viewBox="0 0 2048 2048" enable-background="new 0 0 2048 2048" xml:space="preserve">
<path fill="#000000" opacity="1.000000" stroke="none" 
	d="
M1197.000000,2049.000000 
	C798.000000,2049.000000 399.500000,2049.000000 1.000000,2049.000000 
	C1.000000,1366.333374 1.000000,683.666687 1.000000,1.000000 
	C683.666687,1.000000 1366.333374,1.000000 2049.000000,1.000000 
	C2049.000000,683.666687 2049.000000,1366.333374 2049.000000,2049.000000 
	C1765.166626,2049.000000 1481.333374,2049.000000 1197.000000,2049.000000 
M615.313416,89.994179 
	C614.881287,90.051666 614.449097,90.109161 613.422058,90.119370 
	C612.950684,90.471100 612.479309,90.822838 611.470093,91.094780 
	C611.274536,91.386864 611.078979,91.678940 610.434509,92.025681 
	C610.434509,92.025681 610.007202,92.173714 609.474670,92.090729 
	C609.284058,92.381210 609.093384,92.671700 608.972107,92.977013 
	C608.972107,92.977013 608.951965,92.908997 608.256958,92.996689 
	C606.808838,93.980179 605.360718,94.963669 603.982910,95.978844 
	C603.982910,95.978844 603.950256,95.908966 603.269897,95.996674 
	C601.808899,97.320068 600.347900,98.643463 598.427795,100.091484 
	C598.132996,100.274727 597.979370,100.539787 597.338623,101.154114 
	C594.041077,106.117401 589.331604,110.672348 587.752441,116.132591 
	C584.843323,126.191757 583.741028,136.777237 581.945190,147.153641 
	C579.598206,160.714447 577.166931,174.262985 575.037292,187.858368 
	C573.151184,199.898849 571.737549,212.012802 569.914307,224.063889 
	C568.071289,236.245834 566.004395,248.394257 563.991943,260.550140 
	C562.378418,270.296265 560.645447,280.022797 559.065857,289.774323 
	C557.639404,298.580719 556.305908,307.402802 555.009216,316.229401 
	C553.238281,328.284576 551.644165,340.366516 549.778748,352.406677 
	C548.341309,361.684753 546.465149,370.894928 545.032288,380.173615 
	C543.172607,392.216553 541.658020,404.312683 539.811523,416.357788 
	C537.993896,428.214417 535.945618,440.035645 534.001465,451.872925 
	C532.372803,461.789215 530.721558,471.701874 529.130005,481.624146 
	C527.717041,490.433380 526.307861,499.244110 525.013855,508.071320 
	C523.245483,520.133972 521.688965,532.228271 519.853943,544.280457 
	C518.023376,556.303589 515.968628,568.292786 513.998047,580.294495 
	C512.396179,590.050903 510.735382,599.797791 509.170776,609.560120 
	C507.732269,618.536011 506.336273,627.519348 505.014008,636.512939 
	C503.263702,648.418030 501.700714,660.351196 499.876953,672.244629 
	C498.032745,684.271606 495.971588,696.265381 493.999725,708.272705 
	C492.396576,718.034851 490.750793,727.790161 489.187073,737.558533 
	C487.748077,746.548035 486.344055,755.543701 485.013611,764.549744 
	C483.253326,776.465515 481.676788,788.409058 479.841583,800.312927 
	C478.010437,812.189880 475.956085,824.032288 474.002075,835.890320 
	C472.365326,845.823120 470.698547,855.751038 469.107544,865.691101 
	C467.694427,874.520081 466.319000,883.355713 465.013763,892.201111 
	C463.231659,904.278137 461.618774,916.380554 459.771973,928.447388 
	C457.953339,940.330017 455.927734,952.180847 454.003357,964.047302 
	C452.417053,973.829285 450.835327,983.611938 449.271179,993.397461 
	C447.834656,1002.384583 446.350647,1011.364929 445.020782,1020.367920 
	C443.260223,1032.286499 441.727966,1044.239258 439.915466,1056.149536 
	C438.057739,1068.356812 435.954071,1080.526489 434.007416,1092.720459 
	C432.518738,1102.045532 431.149261,1111.389771 429.649017,1120.712891 
	C428.150696,1130.024292 426.458374,1139.305176 425.027466,1148.626465 
	C423.197815,1160.545044 421.656097,1172.508423 419.786133,1184.420410 
	C417.642639,1198.074951 415.161896,1211.676514 413.039642,1225.334229 
	C411.187622,1237.253052 409.728241,1249.232666 407.915192,1261.158081 
	C406.056976,1273.380615 404.001648,1285.573364 401.991943,1297.772583 
	C400.406036,1307.398926 398.705444,1317.006592 397.153900,1326.638306 
	C395.703217,1335.643799 394.350647,1344.665405 393.010773,1353.688232 
	C391.239166,1365.618408 389.595703,1377.567871 387.760681,1389.488037 
	C385.928772,1401.388062 383.882111,1413.254883 382.015198,1425.149780 
	C380.221863,1436.576294 378.613953,1448.032227 376.787018,1459.453125 
	C374.603088,1473.106201 372.162689,1486.718750 370.039673,1500.380859 
	C368.187073,1512.302856 366.723663,1524.285156 364.899261,1536.211792 
	C363.054474,1548.271973 360.987915,1560.298462 358.999084,1572.336548 
	C357.381042,1582.130249 355.621979,1591.902222 354.135223,1601.715576 
	C352.912384,1609.786987 351.997528,1617.904907 350.242462,1626.421875 
	C349.861298,1629.901733 349.480133,1633.381592 349.099823,1636.853516 
	C351.603485,1637.908936 353.918671,1638.884766 356.930328,1640.001709 
	C358.435791,1640.922485 359.907227,1641.905151 361.452209,1642.754028 
	C371.551270,1648.302490 381.723450,1653.720459 391.764008,1659.372437 
	C411.965881,1670.744629 432.059082,1682.310303 452.273346,1693.660278 
	C467.680847,1702.311279 483.239136,1710.693237 498.669861,1719.303467 
	C516.933533,1729.494385 535.122437,1739.819214 553.362549,1750.052612 
	C565.517761,1756.872314 577.739197,1763.574341 589.870728,1770.435669 
	C607.077820,1780.167358 624.189514,1790.068359 641.418335,1799.761230 
	C653.709595,1806.676147 666.161987,1813.303955 678.479309,1820.173218 
	C697.443298,1830.749390 716.348999,1841.430176 735.287415,1852.052368 
	C746.723694,1858.466919 758.190247,1864.827515 769.615723,1871.261108 
	C785.396179,1880.146973 801.133484,1889.109375 816.923157,1897.978638 
	C826.243042,1903.213745 835.668396,1908.261353 844.975891,1913.517944 
	C862.291748,1923.297363 879.523071,1933.226807 896.854553,1942.978149 
	C906.719116,1948.528198 916.772217,1953.743286 926.634766,1959.296875 
	C943.819153,1968.973511 960.829407,1978.962402 978.085754,1988.507568 
	C994.406067,1997.535034 1011.724426,2003.281128 1030.493652,2005.219849 
	C1045.583374,2006.778564 1060.280640,2005.663940 1074.936890,2002.565186 
	C1093.080444,1998.729004 1108.884521,1989.395874 1124.859375,1980.594238 
	C1144.317871,1969.873047 1163.593384,1958.820435 1183.012451,1948.026855 
	C1196.468628,1940.547852 1210.082397,1933.352417 1223.538452,1925.873413 
	C1243.347900,1914.863037 1263.063965,1903.684937 1282.849854,1892.632324 
	C1295.277344,1885.690308 1307.784912,1878.891968 1320.212280,1871.949707 
	C1342.455078,1859.524048 1364.640015,1846.994873 1386.894409,1834.590332 
	C1408.588867,1822.498291 1430.359497,1810.543457 1452.060181,1798.462524 
	C1471.991333,1787.366821 1491.831299,1776.106934 1511.792114,1765.065063 
	C1525.940552,1757.238403 1540.302246,1749.796021 1554.426392,1741.926880 
	C1573.129883,1731.506592 1591.645752,1720.750122 1610.332764,1710.300415 
	C1626.955200,1701.005249 1643.738159,1691.997437 1660.384399,1682.744385 
	C1686.488403,1668.234009 1712.508789,1653.572998 1738.627319,1639.088989 
	C1746.003052,1634.998657 1746.495117,1633.969604 1742.962646,1625.176514 
	C1741.441040,1615.382446 1739.955933,1605.582642 1738.387207,1595.796143 
	C1736.973022,1586.974243 1735.390991,1578.178711 1734.020142,1569.350220 
	C1732.222656,1557.773804 1730.656494,1546.161011 1728.813354,1534.592163 
	C1726.641479,1520.960083 1724.290894,1507.356445 1721.996582,1493.743896 
	C1720.404663,1484.298462 1718.742310,1474.864868 1717.175415,1465.415283 
	C1715.739380,1456.753540 1714.379028,1448.079224 1713.003540,1439.407593 
	C1711.119141,1427.526489 1709.288574,1415.636719 1707.365845,1403.761719 
	C1705.625977,1393.015625 1703.701172,1382.298950 1702.027344,1371.542847 
	C1700.225464,1359.964233 1698.724487,1348.338501 1696.900391,1336.763550 
	C1695.055664,1325.057129 1692.927002,1313.395630 1691.013672,1301.699585 
	C1689.202148,1290.625366 1687.548706,1279.525269 1685.752441,1268.448486 
	C1683.880615,1256.905518 1681.929565,1245.375366 1679.997925,1233.842163 
	C1678.415405,1224.392700 1676.791626,1214.949951 1675.220459,1205.498657 
	C1673.461426,1194.916504 1671.669067,1184.338989 1670.022827,1173.739136 
	C1668.199707,1162.001221 1666.610229,1150.227051 1664.762451,1138.493286 
	C1662.943604,1126.943848 1660.875244,1115.433716 1659.014893,1103.890625 
	C1657.229004,1092.809937 1655.623779,1081.700195 1653.839233,1070.619385 
	C1651.954346,1058.915894 1649.954834,1047.230713 1647.998657,1035.538696 
	C1646.444092,1026.247437 1644.867798,1016.959656 1643.322632,1007.666687 
	C1641.536621,996.926392 1639.696167,986.194397 1638.022827,975.436462 
	C1636.221924,963.859619 1634.678223,952.242615 1632.854736,940.669556 
	C1631.009888,928.960449 1628.923584,917.289612 1627.010254,905.591003 
	C1625.199341,894.519165 1623.512085,883.427124 1621.703491,872.354858 
	C1619.844849,860.976379 1617.839600,849.621643 1616.018066,838.237427 
	C1613.910767,825.066223 1612.000610,811.863342 1609.882202,798.694031 
	C1607.663696,784.903625 1605.260620,771.143005 1603.010864,757.357544 
	C1601.229858,746.445190 1599.628784,735.503418 1597.821045,724.595703 
	C1595.618042,711.302734 1593.163208,698.050781 1591.036743,684.746033 
	C1588.853760,671.088074 1587.021973,657.374084 1584.875122,643.710083 
	C1583.035278,632.000000 1580.929810,620.331970 1579.011108,608.633911 
	C1577.195312,597.564209 1575.502808,586.474365 1573.695557,575.403198 
	C1571.497192,561.936829 1569.322632,548.465576 1566.969116,535.025940 
	C1565.500366,526.639526 1563.720215,518.307678 1561.998413,509.242645 
	C1561.610107,508.164093 1561.221802,507.085541 1560.918701,505.465302 
	C1560.623657,505.268616 1560.328491,505.071960 1559.982422,504.429871 
	C1559.982422,504.429871 1559.833740,504.006927 1559.918701,503.465240 
	C1559.623657,503.268616 1559.328491,503.071991 1558.982788,502.436798 
	C1558.982788,502.436798 1558.836182,502.020416 1558.936890,501.483337 
	C1558.645264,501.288391 1558.353516,501.093414 1557.864502,500.353424 
	C1557.514282,499.903656 1557.164062,499.453918 1556.891602,498.475098 
	C1556.604370,498.281555 1556.317261,498.088013 1555.791260,497.275391 
	C1552.900146,494.504089 1550.009033,491.732788 1546.939697,488.452423 
	C1546.629517,488.357330 1546.319214,488.262268 1545.472412,487.959991 
	C1545.020264,487.626862 1544.568115,487.293762 1543.939575,486.453674 
	C1543.631104,486.358337 1543.322510,486.263031 1542.341309,485.862762 
	C1538.932617,484.561646 1535.523926,483.260498 1531.938843,481.453003 
	C1531.630615,481.358246 1531.322266,481.263489 1530.153320,481.022247 
	C1529.654175,481.013916 1529.142700,481.074097 1528.657593,480.987305 
	C1513.486694,478.272522 1499.933228,481.528473 1488.885620,492.552216 
	C1432.800415,548.516418 1376.798096,604.563782 1320.808716,660.623779 
	C1316.980347,664.457031 1313.650513,668.788086 1309.820679,672.619629 
	C1294.308472,688.138977 1278.691528,703.553528 1262.986938,718.262939 
	C1256.240112,705.299072 1249.536865,692.312378 1242.736328,679.376709 
	C1232.230957,659.394165 1221.630371,639.461670 1211.123535,619.479858 
	C1200.916016,600.067383 1190.797607,580.608032 1180.599365,561.190735 
	C1170.171997,541.337097 1159.670898,521.522217 1149.246948,501.666901 
	C1138.670288,481.520660 1128.173218,461.332672 1117.595581,441.186920 
	C1107.169067,421.328888 1096.693115,401.496674 1086.223267,381.661407 
	C1080.487915,370.795715 1072.145020,362.825623 1060.087158,359.638367 
	C1046.790771,356.123749 1034.099609,357.284698 1022.230957,365.150116 
	C1013.219727,371.121857 1008.242432,380.040955 1003.419373,389.082642 
	C993.077576,408.470306 983.036438,428.018066 972.834229,447.480377 
	C962.104309,467.949341 951.301331,488.380035 940.583557,508.855347 
	C930.839233,527.470825 921.166443,546.123840 911.356873,564.962280 
	C908.270386,559.444641 905.131287,554.025024 902.173706,548.508179 
	C894.726501,534.617065 887.384644,520.669617 879.957397,506.767792 
	C869.448364,487.097656 858.887268,467.455353 848.374084,447.787445 
	C840.901978,433.808685 833.483398,419.801392 826.020874,405.817474 
	C815.538452,386.174377 805.022827,366.548950 794.549011,346.901245 
	C786.693054,332.164368 778.912415,317.387299 771.041565,302.658356 
	C758.696472,279.556854 746.288879,256.488708 733.936096,233.391312 
	C725.540649,217.693283 717.241638,201.943558 708.812195,186.263840 
	C699.400513,168.757126 689.931335,151.280930 680.407654,133.834900 
	C674.416077,122.859161 669.810547,111.035912 661.260315,101.598633 
	C654.534973,94.175591 646.201721,89.783119 635.642883,88.223633 
	C630.724609,88.472183 625.806274,88.720734 620.435242,89.025551 
	C620.435242,89.025551 620.004333,89.175377 619.257324,89.025421 
	C618.150146,89.321541 617.042969,89.617661 615.952942,89.992500 
	C615.952942,89.992500 615.965881,89.913353 615.313416,89.994179 
z"/>
<path fill="#FFD65B" opacity="1.000000" stroke="none" 
	d="
M1544.115967,486.960663 
	C1544.568115,487.293762 1545.020264,487.626862 1545.897461,488.232727 
	C1546.554932,488.714539 1546.820068,488.866547 1547.117920,488.961487 
	C1550.009033,491.732788 1552.900146,494.504089 1556.001221,497.795959 
	C1556.366211,498.585876 1556.567139,498.815063 1556.813843,499.004150 
	C1557.164062,499.453918 1557.514282,499.903656 1558.041870,500.843658 
	C1558.368408,501.613464 1558.574097,501.842316 1558.836182,502.020416 
	C1558.836182,502.020416 1558.982788,502.436798 1559.101074,502.871216 
	C1559.377808,503.579895 1559.582642,503.813660 1559.833740,504.006927 
	C1559.833740,504.006927 1559.982422,504.429871 1560.100830,504.867706 
	C1560.377930,505.579834 1560.582642,505.813629 1560.833618,506.006958 
	C1561.221802,507.085541 1561.610107,508.164093 1561.805542,509.860931 
	C1561.386475,512.998169 1561.160400,515.517151 1560.696045,517.800171 
	C1557.845459,513.742065 1555.584961,509.612061 1552.556885,506.153992 
	C1542.339600,494.485321 1529.083496,490.655304 1513.614624,492.085876 
	C1502.049927,493.951691 1493.367920,500.010132 1485.567139,507.895905 
	C1446.207642,547.684814 1406.864380,587.490906 1367.306763,627.082458 
	C1223.045044,771.467529 1078.699585,915.768799 934.396606,1060.112549 
	C932.518982,1061.990723 930.785767,1064.013062 928.697937,1066.136719 
	C926.843201,1067.798462 925.241455,1069.257446 923.712952,1070.789551 
	C794.757080,1200.051270 665.826050,1329.337769 536.847351,1458.576660 
	C480.708466,1514.828857 424.470520,1570.982300 368.291138,1627.194092 
	C366.768555,1628.717651 365.402649,1630.397705 363.723694,1632.012695 
	C363.483765,1632.020508 363.004578,1632.050659 362.701111,1631.902588 
	C360.601379,1630.508911 358.805054,1629.263428 357.189026,1627.739258 
	C358.405701,1626.377563 359.422211,1625.274658 360.481140,1624.213867 
	C524.352234,1460.045898 688.215637,1295.870239 852.105469,1131.720825 
	C928.635803,1055.069214 1005.218933,978.470459 1081.768799,901.838440 
	C1083.294189,900.311462 1084.704346,898.669556 1086.445312,896.907837 
	C1087.333740,896.169067 1087.965332,895.624023 1088.553467,895.035583 
	C1144.736328,838.818237 1200.917114,782.598694 1257.086914,726.368347 
	C1258.140381,725.313660 1259.062134,724.127380 1260.328857,722.838745 
	C1261.446167,721.452271 1262.279785,720.229492 1263.113281,719.006714 
	C1278.691528,703.553528 1294.308472,688.138977 1309.820679,672.619629 
	C1313.650513,668.788086 1316.980347,664.457031 1320.808716,660.623779 
	C1376.798096,604.563782 1432.800415,548.516418 1488.885620,492.552216 
	C1499.933228,481.528473 1513.486694,478.272522 1528.657593,480.987305 
	C1529.142700,481.074097 1529.654175,481.013916 1530.739380,481.263641 
	C1531.556274,481.712769 1531.819580,481.864197 1532.115234,481.959351 
	C1535.523926,483.260498 1538.932617,484.561646 1542.833496,486.183716 
	C1543.556519,486.713135 1543.819946,486.865143 1544.115967,486.960663 
z"/>
<path fill="#EEAC26" opacity="1.000000" stroke="none" 
	d="
M1742.820312,1626.041870 
	C1746.495117,1633.969604 1746.003052,1634.998657 1738.627319,1639.088989 
	C1712.508789,1653.572998 1686.488403,1668.234009 1660.384399,1682.744385 
	C1643.738159,1691.997437 1626.955200,1701.005249 1610.332764,1710.300415 
	C1591.645752,1720.750122 1573.129883,1731.506592 1554.426392,1741.926880 
	C1540.302246,1749.796021 1525.940552,1757.238403 1511.792114,1765.065063 
	C1491.831299,1776.106934 1471.991333,1787.366821 1452.060181,1798.462524 
	C1430.359497,1810.543457 1408.588867,1822.498291 1386.894409,1834.590332 
	C1364.640015,1846.994873 1342.455078,1859.524048 1320.212280,1871.949707 
	C1307.784912,1878.891968 1295.277344,1885.690308 1282.849854,1892.632324 
	C1263.063965,1903.684937 1243.347900,1914.863037 1223.538452,1925.873413 
	C1210.082397,1933.352417 1196.468628,1940.547852 1183.012451,1948.026855 
	C1163.593384,1958.820435 1144.317871,1969.873047 1124.859375,1980.594238 
	C1108.884521,1989.395874 1093.080444,1998.729004 1074.936890,2002.565186 
	C1060.280640,2005.663940 1045.583374,2006.778564 1030.493652,2005.219849 
	C1011.724426,2003.281128 994.406067,1997.535034 978.085754,1988.507568 
	C960.829407,1978.962402 943.819153,1968.973511 926.634766,1959.296875 
	C916.772217,1953.743286 906.719116,1948.528198 896.854553,1942.978149 
	C879.523071,1933.226807 862.291748,1923.297363 844.975891,1913.517944 
	C835.668396,1908.261353 826.243042,1903.213745 816.923157,1897.978638 
	C801.133484,1889.109375 785.396179,1880.146973 769.615723,1871.261108 
	C758.190247,1864.827515 746.723694,1858.466919 735.287415,1852.052368 
	C716.348999,1841.430176 697.443298,1830.749390 678.479309,1820.173218 
	C666.161987,1813.303955 653.709595,1806.676147 641.418335,1799.761230 
	C624.189514,1790.068359 607.077820,1780.167358 589.870728,1770.435669 
	C577.739197,1763.574341 565.517761,1756.872314 553.362549,1750.052612 
	C535.122437,1739.819214 516.933533,1729.494385 498.669861,1719.303467 
	C483.239136,1710.693237 467.680847,1702.311279 452.273346,1693.660278 
	C432.059082,1682.310303 411.965881,1670.744629 391.764008,1659.372437 
	C381.723450,1653.720459 371.551270,1648.302490 361.452209,1642.754028 
	C359.907227,1641.905151 358.435791,1640.922485 356.609802,1639.644043 
	C356.852692,1638.844482 357.416107,1638.402710 358.209991,1638.217285 
	C367.715912,1643.692993 376.986328,1648.921387 386.268036,1654.129639 
	C406.140869,1665.280640 426.026550,1676.408569 445.893677,1687.569824 
	C469.239258,1700.685059 492.563843,1713.837769 515.910400,1726.951416 
	C535.923279,1738.192627 555.953979,1749.401733 575.977539,1760.623901 
	C597.305603,1772.577148 618.602356,1784.587036 639.974548,1796.460938 
	C654.209900,1804.370117 668.592102,1812.014771 682.836792,1819.907471 
	C696.221313,1827.323486 709.597778,1834.762573 722.797913,1842.498413 
	C727.570923,1845.295532 731.393616,1845.307739 735.315674,1841.145752 
	C752.423218,1850.526367 769.212830,1859.763184 786.232056,1869.249512 
	C802.580933,1878.510132 818.710083,1887.503174 834.816956,1896.536255 
	C858.468506,1909.800659 882.104431,1923.092896 905.746521,1936.374023 
	C926.488159,1948.026001 947.408569,1959.373047 967.926392,1971.406616 
	C995.682129,1987.685059 1024.665771,1997.991333 1057.571777,1994.129639 
	C1075.364868,1992.041504 1092.065552,1987.078247 1107.702637,1978.508545 
	C1124.626099,1969.233521 1141.425049,1959.731323 1158.294922,1950.358032 
	C1177.493408,1939.690552 1196.725098,1929.082642 1215.914917,1918.399780 
	C1240.917603,1904.480957 1265.880981,1890.491943 1290.884399,1876.574585 
	C1310.220337,1865.811890 1329.608154,1855.142456 1348.943237,1844.378052 
	C1373.799805,1830.539429 1398.611084,1816.619263 1423.471313,1802.786987 
	C1442.808960,1792.027466 1462.209961,1781.381592 1481.549561,1770.625488 
	C1506.994385,1756.474243 1532.395264,1742.244507 1557.835815,1728.086060 
	C1579.789185,1715.868042 1601.785034,1703.726562 1623.738281,1691.508057 
	C1649.032959,1677.429688 1674.305542,1663.311035 1699.579224,1649.194946 
	C1713.376953,1641.488525 1727.157593,1633.751587 1741.258301,1626.036133 
	C1741.987183,1626.043091 1742.403809,1626.042480 1742.820312,1626.041870 
z"/>
<path fill="#FFB943" opacity="1.000000" stroke="none" 
	d="
M1263.050049,718.634827 
	C1262.279785,720.229492 1261.446167,721.452271 1260.077637,722.605652 
	C1246.973633,698.857361 1234.375000,675.194092 1221.843872,651.495056 
	C1208.766846,626.763367 1195.730835,602.009827 1182.719360,577.243469 
	C1161.264893,536.406372 1139.842285,495.552490 1118.411011,454.703186 
	C1107.425049,433.763000 1096.715332,412.670563 1085.291016,391.972412 
	C1082.252197,386.466827 1077.681763,381.334656 1072.705200,377.453735 
	C1052.965210,362.059906 1022.187561,367.920349 1010.193237,389.790466 
	C993.380554,420.446289 977.481262,451.602814 961.166809,482.532227 
	C952.776978,498.437836 944.278870,514.286499 935.931274,530.213989 
	C928.514465,544.365601 921.238098,558.590759 913.666504,573.008057 
	C912.646301,574.066101 911.859497,574.899597 910.992615,575.817871 
	C909.753052,574.211243 908.879761,573.079285 907.869629,571.630676 
	C902.779663,562.071594 897.825989,552.829407 892.873047,543.586853 
	C870.310059,501.482300 847.758545,459.371552 825.180664,417.274994 
	C808.425171,386.034271 791.624756,354.817627 774.863586,323.579987 
	C754.954956,286.476776 735.046753,249.373245 715.176147,212.249680 
	C699.232056,182.461838 683.238403,152.699768 667.463440,122.822418 
	C653.791748,96.928444 617.917114,90.639839 597.845032,112.658188 
	C594.292786,116.554871 591.287354,120.950058 588.021851,124.694733 
	C589.379211,119.965599 590.454163,115.535034 592.196228,111.384476 
	C593.733032,107.722862 596.014404,104.373764 597.967041,100.886673 
	C597.979370,100.539787 598.132996,100.274727 599.028198,100.025131 
	C601.069214,98.608833 602.509705,97.258904 603.950256,95.908966 
	C603.950256,95.908966 603.982910,95.978844 604.318359,95.963577 
	C606.086609,94.935219 607.519287,93.922112 608.951965,92.909004 
	C608.951965,92.908997 608.972107,92.977013 609.147949,92.877968 
	C609.590759,92.621445 609.818604,92.419708 610.007202,92.173714 
	C610.007202,92.173714 610.434509,92.025681 610.872803,91.906013 
	C611.582397,91.626823 611.814636,91.422905 612.007935,91.174576 
	C612.479309,90.822838 612.950684,90.471100 613.903442,90.297821 
	C614.911865,90.288643 615.438843,90.101006 615.965881,89.913361 
	C615.965881,89.913353 615.952942,89.992500 616.300293,89.979111 
	C617.766602,89.702278 618.885437,89.438828 620.004333,89.175377 
	C620.004333,89.175377 620.435242,89.025551 621.135864,89.007683 
	C626.596497,88.980324 631.356445,88.970833 636.116455,88.961349 
	C646.201721,89.783119 654.534973,94.175591 661.260315,101.598633 
	C669.810547,111.035912 674.416077,122.859161 680.407654,133.834900 
	C689.931335,151.280930 699.400513,168.757126 708.812195,186.263840 
	C717.241638,201.943558 725.540649,217.693283 733.936096,233.391312 
	C746.288879,256.488708 758.696472,279.556854 771.041565,302.658356 
	C778.912415,317.387299 786.693054,332.164368 794.549011,346.901245 
	C805.022827,366.548950 815.538452,386.174377 826.020874,405.817474 
	C833.483398,419.801392 840.901978,433.808685 848.374084,447.787445 
	C858.887268,467.455353 869.448364,487.097656 879.957397,506.767792 
	C887.384644,520.669617 894.726501,534.617065 902.173706,548.508179 
	C905.131287,554.025024 908.270386,559.444641 911.356873,564.962280 
	C921.166443,546.123840 930.839233,527.470825 940.583557,508.855347 
	C951.301331,488.380035 962.104309,467.949341 972.834229,447.480377 
	C983.036438,428.018066 993.077576,408.470306 1003.419373,389.082642 
	C1008.242432,380.040955 1013.219727,371.121857 1022.230957,365.150116 
	C1034.099609,357.284698 1046.790771,356.123749 1060.087158,359.638367 
	C1072.145020,362.825623 1080.487915,370.795715 1086.223267,381.661407 
	C1096.693115,401.496674 1107.169067,421.328888 1117.595581,441.186920 
	C1128.173218,461.332672 1138.670288,481.520660 1149.246948,501.666901 
	C1159.670898,521.522217 1170.171997,541.337097 1180.599365,561.190735 
	C1190.797607,580.608032 1200.916016,600.067383 1211.123535,619.479858 
	C1221.630371,639.461670 1232.230957,659.394165 1242.736328,679.376709 
	C1249.536865,692.312378 1256.240112,705.299072 1263.050049,718.634827 
z"/>
<path fill="#FFB436" opacity="1.000000" stroke="none" 
	d="
M597.652832,101.020393 
	C596.014404,104.373764 593.733032,107.722862 592.196228,111.384476 
	C590.454163,115.535034 589.379211,119.965599 588.020630,124.913376 
	C588.026978,125.552322 588.008057,125.991570 587.828003,126.153976 
	C587.749878,126.862823 587.851807,127.409271 587.815125,128.313644 
	C585.811096,138.790115 583.723389,148.873627 582.122498,159.033859 
	C577.549255,188.057190 573.225159,217.119675 568.705322,246.151550 
	C564.874878,270.754974 560.865906,295.330566 557.013855,319.930634 
	C553.187317,344.367035 549.514954,368.827606 545.668945,393.260864 
	C542.209961,415.235382 538.526184,437.174561 535.087769,459.152222 
	C530.546326,488.179565 526.192810,517.236328 521.673401,546.267151 
	C517.843262,570.869446 513.846313,595.445801 510.006439,620.046631 
	C505.526520,648.747681 501.178375,677.469360 496.695435,706.169983 
	C492.853119,730.769287 488.860596,755.345154 485.009552,779.943176 
	C481.184082,804.377869 477.509064,828.836121 473.662628,853.267517 
	C470.203308,875.239990 466.515991,897.176758 463.083282,919.153259 
	C458.856964,946.210693 454.852844,973.302917 450.636749,1000.362000 
	C446.497253,1026.928955 442.159637,1053.464966 438.005768,1080.029785 
	C433.518982,1108.723999 429.182922,1137.441650 424.709076,1166.137939 
	C420.848846,1190.897949 416.874176,1215.640015 412.974792,1240.393921 
	C409.385590,1263.178833 405.834412,1285.969971 402.256744,1308.756714 
	C399.193268,1328.268677 396.095978,1347.775391 393.049805,1367.290161 
	C389.441254,1390.407593 385.891113,1413.534180 382.278900,1436.651123 
	C379.229736,1456.165039 376.101624,1475.666504 373.056671,1495.181030 
	C369.449432,1518.298706 365.894989,1541.424561 362.315582,1564.546753 
	C359.141632,1585.049561 355.964844,1605.551758 352.482208,1626.047607 
	C351.765442,1626.027954 351.355835,1626.015137 350.946198,1626.002197 
	C351.997528,1617.904907 352.912384,1609.786987 354.135223,1601.715576 
	C355.621979,1591.902222 357.381042,1582.130249 358.999084,1572.336548 
	C360.987915,1560.298462 363.054474,1548.271973 364.899261,1536.211792 
	C366.723663,1524.285156 368.187073,1512.302856 370.039673,1500.380859 
	C372.162689,1486.718750 374.603088,1473.106201 376.787018,1459.453125 
	C378.613953,1448.032227 380.221863,1436.576294 382.015198,1425.149780 
	C383.882111,1413.254883 385.928772,1401.388062 387.760681,1389.488037 
	C389.595703,1377.567871 391.239166,1365.618408 393.010773,1353.688232 
	C394.350647,1344.665405 395.703217,1335.643799 397.153900,1326.638306 
	C398.705444,1317.006592 400.406036,1307.398926 401.991943,1297.772583 
	C404.001648,1285.573364 406.056976,1273.380615 407.915192,1261.158081 
	C409.728241,1249.232666 411.187622,1237.253052 413.039642,1225.334229 
	C415.161896,1211.676514 417.642639,1198.074951 419.786133,1184.420410 
	C421.656097,1172.508423 423.197815,1160.545044 425.027466,1148.626465 
	C426.458374,1139.305176 428.150696,1130.024292 429.649017,1120.712891 
	C431.149261,1111.389771 432.518738,1102.045532 434.007416,1092.720459 
	C435.954071,1080.526489 438.057739,1068.356812 439.915466,1056.149536 
	C441.727966,1044.239258 443.260223,1032.286499 445.020782,1020.367920 
	C446.350647,1011.364929 447.834656,1002.384583 449.271179,993.397461 
	C450.835327,983.611938 452.417053,973.829285 454.003357,964.047302 
	C455.927734,952.180847 457.953339,940.330017 459.771973,928.447388 
	C461.618774,916.380554 463.231659,904.278137 465.013763,892.201111 
	C466.319000,883.355713 467.694427,874.520081 469.107544,865.691101 
	C470.698547,855.751038 472.365326,845.823120 474.002075,835.890320 
	C475.956085,824.032288 478.010437,812.189880 479.841583,800.312927 
	C481.676788,788.409058 483.253326,776.465515 485.013611,764.549744 
	C486.344055,755.543701 487.748077,746.548035 489.187073,737.558533 
	C490.750793,727.790161 492.396576,718.034851 493.999725,708.272705 
	C495.971588,696.265381 498.032745,684.271606 499.876953,672.244629 
	C501.700714,660.351196 503.263702,648.418030 505.014008,636.512939 
	C506.336273,627.519348 507.732269,618.536011 509.170776,609.560120 
	C510.735382,599.797791 512.396179,590.050903 513.998047,580.294495 
	C515.968628,568.292786 518.023376,556.303589 519.853943,544.280457 
	C521.688965,532.228271 523.245483,520.133972 525.013855,508.071320 
	C526.307861,499.244110 527.717041,490.433380 529.130005,481.624146 
	C530.721558,471.701874 532.372803,461.789215 534.001465,451.872925 
	C535.945618,440.035645 537.993896,428.214417 539.811523,416.357788 
	C541.658020,404.312683 543.172607,392.216553 545.032288,380.173615 
	C546.465149,370.894928 548.341309,361.684753 549.778748,352.406677 
	C551.644165,340.366516 553.238281,328.284576 555.009216,316.229401 
	C556.305908,307.402802 557.639404,298.580719 559.065857,289.774323 
	C560.645447,280.022797 562.378418,270.296265 563.991943,260.550140 
	C566.004395,248.394257 568.071289,236.245834 569.914307,224.063889 
	C571.737549,212.012802 573.151184,199.898849 575.037292,187.858368 
	C577.166931,174.262985 579.598206,160.714447 581.945190,147.153641 
	C583.741028,136.777237 584.843323,126.191757 587.752441,116.132591 
	C589.331604,110.672348 594.041077,106.117401 597.652832,101.020393 
z"/>
<path fill="#FFD44F" opacity="1.000000" stroke="none" 
	d="
M1742.891479,1625.609131 
	C1742.403809,1626.042480 1741.987183,1626.043091 1741.202759,1625.636475 
	C1736.863037,1600.814209 1732.872192,1576.402222 1728.924438,1551.983398 
	C1724.181152,1522.644287 1719.477661,1493.298706 1714.751221,1463.956787 
	C1709.787231,1433.140137 1704.834351,1402.321777 1699.844604,1371.509399 
	C1693.500610,1332.334595 1687.110229,1293.167480 1680.765625,1253.992798 
	C1675.775635,1223.181641 1670.830566,1192.363159 1665.855103,1161.549683 
	C1660.509155,1128.440186 1655.160645,1095.331055 1649.795898,1062.224609 
	C1643.475098,1023.218323 1637.126343,984.216492 1630.806763,945.209961 
	C1625.469482,912.266968 1620.153076,879.320496 1614.833252,846.374695 
	C1609.831177,815.395996 1604.847778,784.414246 1599.835571,753.437195 
	C1593.841919,716.393982 1587.919067,679.338989 1581.795654,642.317200 
	C1574.941040,600.873779 1567.896240,559.461792 1560.934204,518.036133 
	C1561.160400,515.517151 1561.386475,512.998169 1561.846313,510.215271 
	C1563.720215,518.307678 1565.500366,526.639526 1566.969116,535.025940 
	C1569.322632,548.465576 1571.497192,561.936829 1573.695557,575.403198 
	C1575.502808,586.474365 1577.195312,597.564209 1579.011108,608.633911 
	C1580.929810,620.331970 1583.035278,632.000000 1584.875122,643.710083 
	C1587.021973,657.374084 1588.853760,671.088074 1591.036743,684.746033 
	C1593.163208,698.050781 1595.618042,711.302734 1597.821045,724.595703 
	C1599.628784,735.503418 1601.229858,746.445190 1603.010864,757.357544 
	C1605.260620,771.143005 1607.663696,784.903625 1609.882202,798.694031 
	C1612.000610,811.863342 1613.910767,825.066223 1616.018066,838.237427 
	C1617.839600,849.621643 1619.844849,860.976379 1621.703491,872.354858 
	C1623.512085,883.427124 1625.199341,894.519165 1627.010254,905.591003 
	C1628.923584,917.289612 1631.009888,928.960449 1632.854736,940.669556 
	C1634.678223,952.242615 1636.221924,963.859619 1638.022827,975.436462 
	C1639.696167,986.194397 1641.536621,996.926392 1643.322632,1007.666687 
	C1644.867798,1016.959656 1646.444092,1026.247437 1647.998657,1035.538696 
	C1649.954834,1047.230713 1651.954346,1058.915894 1653.839233,1070.619385 
	C1655.623779,1081.700195 1657.229004,1092.809937 1659.014893,1103.890625 
	C1660.875244,1115.433716 1662.943604,1126.943848 1664.762451,1138.493286 
	C1666.610229,1150.227051 1668.199707,1162.001221 1670.022827,1173.739136 
	C1671.669067,1184.338989 1673.461426,1194.916504 1675.220459,1205.498657 
	C1676.791626,1214.949951 1678.415405,1224.392700 1679.997925,1233.842163 
	C1681.929565,1245.375366 1683.880615,1256.905518 1685.752441,1268.448486 
	C1687.548706,1279.525269 1689.202148,1290.625366 1691.013672,1301.699585 
	C1692.927002,1313.395630 1695.055664,1325.057129 1696.900391,1336.763550 
	C1698.724487,1348.338501 1700.225464,1359.964233 1702.027344,1371.542847 
	C1703.701172,1382.298950 1705.625977,1393.015625 1707.365845,1403.761719 
	C1709.288574,1415.636719 1711.119141,1427.526489 1713.003540,1439.407593 
	C1714.379028,1448.079224 1715.739380,1456.753540 1717.175415,1465.415283 
	C1718.742310,1474.864868 1720.404663,1484.298462 1721.996582,1493.743896 
	C1724.290894,1507.356445 1726.641479,1520.960083 1728.813354,1534.592163 
	C1730.656494,1546.161011 1732.222656,1557.773804 1734.020142,1569.350220 
	C1735.390991,1578.178711 1736.973022,1586.974243 1738.387207,1595.796143 
	C1739.955933,1605.582642 1741.441040,1615.382446 1742.891479,1625.609131 
z"/>
<path fill="#FFB943" opacity="1.000000" stroke="none" 
	d="
M350.594330,1626.212158 
	C351.355835,1626.015137 351.765442,1626.027954 352.509613,1626.249512 
	C352.844147,1626.458008 352.852539,1626.865479 352.639038,1627.135010 
	C352.296570,1628.662964 352.167603,1629.921509 351.937378,1632.168457 
	C354.290649,1630.242554 355.649689,1629.130249 357.008728,1628.017822 
	C358.805054,1629.263428 360.601379,1630.508911 362.532471,1632.176270 
	C361.104706,1634.385742 359.542114,1636.173340 357.979553,1637.960938 
	C357.416107,1638.402710 356.852692,1638.844482 356.261566,1639.573486 
	C353.918671,1638.884766 351.603485,1637.908936 349.099823,1636.853516 
	C349.480133,1633.381592 349.861298,1629.901733 350.594330,1626.212158 
z"/>
<path fill="#FFB436" opacity="1.000000" stroke="none" 
	d="
M635.879639,88.592491 
	C631.356445,88.970833 626.596497,88.980324 621.362244,88.979553 
	C625.806274,88.720734 630.724609,88.472183 635.879639,88.592491 
z"/>
<path fill="#FFB436" opacity="1.000000" stroke="none" 
	d="
M603.610107,95.952820 
	C602.509705,97.258904 601.069214,98.608833 599.257751,99.962814 
	C600.347900,98.643463 601.808899,97.320068 603.610107,95.952820 
z"/>
<path fill="#FFB436" opacity="1.000000" stroke="none" 
	d="
M608.604492,92.952850 
	C607.519287,93.922112 606.086609,94.935219 604.283203,95.947739 
	C605.360718,94.963669 606.808838,93.980179 608.604492,92.952850 
z"/>
<path fill="#FFB436" opacity="1.000000" stroke="none" 
	d="
M619.630859,89.100403 
	C618.885437,89.438828 617.766602,89.702278 616.291748,89.939758 
	C617.042969,89.617661 618.150146,89.321541 619.630859,89.100403 
z"/>
<path fill="#FFB436" opacity="1.000000" stroke="none" 
	d="
M615.639648,89.953766 
	C615.438843,90.101006 614.911865,90.288643 614.200928,90.321472 
	C614.449097,90.109161 614.881287,90.051666 615.639648,89.953766 
z"/>
<path fill="#FFD44F" opacity="1.000000" stroke="none" 
	d="
M1547.028809,488.706940 
	C1546.820068,488.866547 1546.554932,488.714539 1546.165771,488.336365 
	C1546.319214,488.262268 1546.629517,488.357330 1547.028809,488.706940 
z"/>
<path fill="#FFB436" opacity="1.000000" stroke="none" 
	d="
M609.740967,92.132217 
	C609.818604,92.419708 609.590759,92.621445 609.113220,92.870552 
	C609.093384,92.671700 609.284058,92.381210 609.740967,92.132217 
z"/>
<path fill="#FFD44F" opacity="1.000000" stroke="none" 
	d="
M1556.852783,498.739624 
	C1556.567139,498.815063 1556.366211,498.585876 1556.120605,498.105469 
	C1556.317261,498.088013 1556.604370,498.281555 1556.852783,498.739624 
z"/>
<path fill="#FFD44F" opacity="1.000000" stroke="none" 
	d="
M1558.886475,501.751892 
	C1558.574097,501.842316 1558.368408,501.613464 1558.140625,501.116150 
	C1558.353516,501.093414 1558.645264,501.288391 1558.886475,501.751892 
z"/>
<path fill="#FFD44F" opacity="1.000000" stroke="none" 
	d="
M1559.876221,503.736084 
	C1559.582642,503.813660 1559.377808,503.579895 1559.126343,503.090454 
	C1559.328491,503.071991 1559.623657,503.268616 1559.876221,503.736084 
z"/>
<path fill="#FFD44F" opacity="1.000000" stroke="none" 
	d="
M1560.876221,505.736145 
	C1560.582642,505.813629 1560.377930,505.579834 1560.126343,505.090424 
	C1560.328491,505.071960 1560.623657,505.268616 1560.876221,505.736145 
z"/>
<path fill="#FFD44F" opacity="1.000000" stroke="none" 
	d="
M1544.027832,486.707153 
	C1543.819946,486.865143 1543.556519,486.713135 1543.169922,486.336212 
	C1543.322510,486.263031 1543.631104,486.358337 1544.027832,486.707153 
z"/>
<path fill="#FFB436" opacity="1.000000" stroke="none" 
	d="
M611.739014,91.134674 
	C611.814636,91.422905 611.582397,91.626823 611.097290,91.878677 
	C611.078979,91.678940 611.274536,91.386864 611.739014,91.134674 
z"/>
<path fill="#FFD44F" opacity="1.000000" stroke="none" 
	d="
M1532.027100,481.706177 
	C1531.819580,481.864197 1531.556274,481.712769 1531.169678,481.336884 
	C1531.322266,481.263489 1531.630615,481.358246 1532.027100,481.706177 
z"/>
<path fill="#FFCB2B" opacity="1.000000" stroke="none" 
	d="
M1560.696045,517.800171 
	C1567.896240,559.461792 1574.941040,600.873779 1581.795654,642.317200 
	C1587.919067,679.338989 1593.841919,716.393982 1599.835571,753.437195 
	C1604.847778,784.414246 1609.831177,815.395996 1614.833252,846.374695 
	C1620.153076,879.320496 1625.469482,912.266968 1630.806763,945.209961 
	C1637.126343,984.216492 1643.475098,1023.218323 1649.795898,1062.224609 
	C1655.160645,1095.331055 1660.509155,1128.440186 1665.855103,1161.549683 
	C1670.830566,1192.363159 1675.775635,1223.181641 1680.765625,1253.992798 
	C1687.110229,1293.167480 1693.500610,1332.334595 1699.844604,1371.509399 
	C1704.834351,1402.321777 1709.787231,1433.140137 1714.751221,1463.956787 
	C1719.477661,1493.298706 1724.181152,1522.644287 1728.924438,1551.983398 
	C1732.872192,1576.402222 1736.863037,1600.814209 1740.890381,1625.628784 
	C1727.157593,1633.751587 1713.376953,1641.488525 1699.579224,1649.194946 
	C1674.305542,1663.311035 1649.032959,1677.429688 1623.738281,1691.508057 
	C1601.785034,1703.726562 1579.789185,1715.868042 1557.835815,1728.086060 
	C1532.395264,1742.244507 1506.994385,1756.474243 1481.549561,1770.625488 
	C1462.209961,1781.381592 1442.808960,1792.027466 1423.471313,1802.786987 
	C1398.611084,1816.619263 1373.799805,1830.539429 1348.943237,1844.378052 
	C1329.608154,1855.142456 1310.220337,1865.811890 1290.884399,1876.574585 
	C1265.880981,1890.491943 1240.917603,1904.480957 1215.914917,1918.399780 
	C1196.725098,1929.082642 1177.493408,1939.690552 1158.294922,1950.358032 
	C1141.425049,1959.731323 1124.626099,1969.233521 1107.702637,1978.508545 
	C1092.065552,1987.078247 1075.364868,1992.041504 1057.571777,1994.129639 
	C1024.665771,1997.991333 995.682129,1987.685059 967.926392,1971.406616 
	C947.408569,1959.373047 926.488159,1948.026001 905.746521,1936.374023 
	C882.104431,1923.092896 858.468506,1909.800659 834.816956,1896.536255 
	C818.710083,1887.503174 802.580933,1878.510132 786.521729,1869.069336 
	C787.173096,1867.850586 787.884827,1867.125000 788.338562,1866.263550 
	C805.328186,1834.006470 822.286987,1801.733032 839.265564,1769.470093 
	C852.289795,1744.721436 865.343140,1719.987915 878.369141,1695.240112 
	C895.272461,1663.125854 912.156250,1631.001221 929.057861,1598.886108 
	C942.160095,1573.990112 955.289429,1549.108398 968.384155,1524.208374 
	C985.663635,1491.350830 1002.910828,1458.476196 1020.191528,1425.619263 
	C1033.209595,1400.867188 1046.268311,1376.136475 1059.291504,1351.387207 
	C1076.346558,1318.976074 1093.375977,1286.551636 1110.432129,1254.141235 
	C1123.378784,1229.539795 1136.376099,1204.965210 1149.303955,1180.354004 
	C1167.342651,1146.013184 1185.316772,1111.638428 1203.359985,1077.299927 
	C1212.263916,1060.354614 1221.295410,1043.476196 1230.208618,1026.535645 
	C1250.983032,987.051697 1271.709106,947.542419 1292.478760,908.055969 
	C1301.700073,890.524536 1311.003662,873.036377 1320.227051,855.506042 
	C1340.846191,816.316895 1361.429077,777.108765 1382.045654,737.918396 
	C1391.422974,720.092529 1400.868652,702.302612 1410.242920,684.475098 
	C1427.753540,651.174316 1445.256226,617.869385 1462.720703,584.544373 
	C1474.699585,561.686462 1486.308105,538.627380 1498.706299,516.000122 
	C1503.234009,507.736816 1505.750244,497.992645 1514.000122,492.041290 
	C1529.083496,490.655304 1542.339600,494.485321 1552.556885,506.153992 
	C1555.584961,509.612061 1557.845459,513.742065 1560.696045,517.800171 
z"/>
<path fill="#FFCC2F" opacity="1.000000" stroke="none" 
	d="
M1513.614624,492.085876 
	C1505.750244,497.992645 1503.234009,507.736816 1498.706299,516.000122 
	C1486.308105,538.627380 1474.699585,561.686462 1462.720703,584.544373 
	C1445.256226,617.869385 1427.753540,651.174316 1410.242920,684.475098 
	C1400.868652,702.302612 1391.422974,720.092529 1382.045654,737.918396 
	C1361.429077,777.108765 1340.846191,816.316895 1320.227051,855.506042 
	C1311.003662,873.036377 1301.700073,890.524536 1292.478760,908.055969 
	C1271.709106,947.542419 1250.983032,987.051697 1230.208618,1026.535645 
	C1221.295410,1043.476196 1212.263916,1060.354614 1203.359985,1077.299927 
	C1185.316772,1111.638428 1167.342651,1146.013184 1149.303955,1180.354004 
	C1136.376099,1204.965210 1123.378784,1229.539795 1110.432129,1254.141235 
	C1093.375977,1286.551636 1076.346558,1318.976074 1059.291504,1351.387207 
	C1046.268311,1376.136475 1033.209595,1400.867188 1020.191528,1425.619263 
	C1002.910828,1458.476196 985.663635,1491.350830 968.384155,1524.208374 
	C955.289429,1549.108398 942.160095,1573.990112 929.057861,1598.886108 
	C912.156250,1631.001221 895.272461,1663.125854 878.369141,1695.240112 
	C865.343140,1719.987915 852.289795,1744.721436 839.265564,1769.470093 
	C822.286987,1801.733032 805.328186,1834.006470 788.338562,1866.263550 
	C787.884827,1867.125000 787.173096,1867.850586 786.292114,1868.819824 
	C769.212830,1859.763184 752.423218,1850.526367 735.085327,1840.896973 
	C731.517273,1838.751343 728.522766,1836.953369 725.473999,1835.252686 
	C698.890259,1820.423950 672.273865,1805.653687 645.712097,1790.785889 
	C613.491821,1772.750610 581.295044,1754.673218 549.131958,1736.536255 
	C539.003784,1730.824829 529.017029,1724.862549 519.290649,1718.870483 
	C521.340515,1718.948853 523.255798,1718.768433 524.751953,1719.475220 
	C528.315247,1721.158325 531.675415,1723.269775 535.126587,1725.192139 
	C544.638550,1730.490479 554.234985,1735.643799 563.635437,1741.133057 
	C568.202698,1743.800171 570.093750,1743.539551 572.689636,1738.610107 
	C586.108154,1713.128418 599.511169,1687.638672 612.924988,1662.154419 
	C626.106079,1637.112671 639.297852,1612.076538 652.477539,1587.033936 
	C669.301270,1555.067261 686.114197,1523.094849 702.938110,1491.128174 
	C716.117859,1466.085693 729.309692,1441.049438 742.491272,1416.007935 
	C755.905579,1390.523926 769.318115,1365.039185 782.723694,1339.550659 
	C796.361877,1313.619873 809.985596,1287.681396 823.625000,1261.751221 
	C840.364136,1229.928223 857.145752,1198.127563 873.846436,1166.284424 
	C886.064453,1142.988403 898.000305,1119.542114 910.442932,1096.367432 
	C914.745300,1088.354248 920.239807,1080.985352 925.094055,1073.262085 
	C926.556763,1070.934814 927.697083,1068.405029 928.985107,1065.968018 
	C930.785767,1064.013062 932.518982,1061.990723 934.396606,1060.112549 
	C1078.699585,915.768799 1223.045044,771.467529 1367.306763,627.082458 
	C1406.864380,587.490906 1446.207642,547.684814 1485.567139,507.895905 
	C1493.367920,500.010132 1502.049927,493.951691 1513.614624,492.085876 
z"/>
<path fill="#F6830D" opacity="1.000000" stroke="none" 
	d="
M357.189026,1627.739258 
	C355.649689,1629.130249 354.290649,1630.242554 351.937378,1632.168457 
	C352.167603,1629.921509 352.296570,1628.662964 352.963104,1627.010498 
	C354.414703,1625.253052 355.457367,1623.958252 356.223419,1622.516357 
	C367.938416,1600.466309 379.665314,1578.422241 391.294128,1556.326660 
	C412.305908,1516.402344 433.251221,1476.442993 454.229492,1436.501099 
	C467.930969,1410.413818 481.650543,1384.336182 495.346039,1358.245728 
	C516.702148,1317.561157 538.038391,1276.866333 559.395386,1236.182251 
	C573.013855,1210.239624 586.672180,1184.317871 600.280884,1158.370239 
	C618.839294,1122.984985 637.348450,1087.573975 655.917114,1052.194092 
	C664.967957,1034.948975 674.138916,1017.766663 683.197021,1000.525085 
	C704.567200,959.848022 725.892456,919.147339 747.255310,878.466431 
	C760.567810,853.115723 773.935852,827.794189 787.243164,802.440796 
	C805.503052,767.651550 823.734924,732.847473 841.968079,698.044128 
	C863.986816,656.015015 885.994202,613.979919 908.006470,571.947388 
	C908.879761,573.079285 909.753052,574.211243 910.992615,575.817871 
	C911.859497,574.899597 912.646301,574.066101 913.921143,573.267822 
	C925.642517,594.286621 936.918823,615.247375 948.097351,636.260132 
	C960.216553,659.041016 972.256409,681.864136 984.309692,704.679993 
	C1003.284668,740.597778 1022.263428,776.513489 1041.198608,812.452271 
	C1052.374756,833.664368 1063.431763,854.939270 1074.622925,876.143372 
	C1078.342407,883.190735 1082.312744,890.105713 1086.168335,897.081238 
	C1084.704346,898.669556 1083.294189,900.311462 1081.768799,901.838440 
	C1005.218933,978.470459 928.635803,1055.069214 852.105469,1131.720825 
	C688.215637,1295.870239 524.352234,1460.045898 360.481140,1624.213867 
	C359.422211,1625.274658 358.405701,1626.377563 357.189026,1627.739258 
z"/>
<path fill="#FFA40C" opacity="1.000000" stroke="none" 
	d="
M1086.445312,896.907837 
	C1082.312744,890.105713 1078.342407,883.190735 1074.622925,876.143372 
	C1063.431763,854.939270 1052.374756,833.664368 1041.198608,812.452271 
	C1022.263428,776.513489 1003.284668,740.597778 984.309692,704.679993 
	C972.256409,681.864136 960.216553,659.041016 948.097351,636.260132 
	C936.918823,615.247375 925.642517,594.286621 914.154480,573.043213 
	C921.238098,558.590759 928.514465,544.365601 935.931274,530.213989 
	C944.278870,514.286499 952.776978,498.437836 961.166809,482.532227 
	C977.481262,451.602814 993.380554,420.446289 1010.193237,389.790466 
	C1022.187561,367.920349 1052.965210,362.059906 1072.705200,377.453735 
	C1077.681763,381.334656 1082.252197,386.466827 1085.291016,391.972412 
	C1096.715332,412.670563 1107.425049,433.763000 1118.411011,454.703186 
	C1139.842285,495.552490 1161.264893,536.406372 1182.719360,577.243469 
	C1195.730835,602.009827 1208.766846,626.763367 1221.843872,651.495056 
	C1234.375000,675.194092 1246.973633,698.857361 1259.793945,722.769409 
	C1259.062134,724.127380 1258.140381,725.313660 1257.086914,726.368347 
	C1200.917114,782.598694 1144.736328,838.818237 1088.553467,895.035583 
	C1087.965332,895.624023 1087.333740,896.169067 1086.445312,896.907837 
z"/>
<path fill="#FFCC33" opacity="1.000000" stroke="none" 
	d="
M928.697998,1066.136719 
	C927.697083,1068.405029 926.556763,1070.934814 925.094055,1073.262085 
	C920.239807,1080.985352 914.745300,1088.354248 910.442932,1096.367432 
	C898.000305,1119.542114 886.064453,1142.988403 873.846436,1166.284424 
	C857.145752,1198.127563 840.364136,1229.928223 823.625000,1261.751221 
	C809.985596,1287.681396 796.361877,1313.619873 782.723694,1339.550659 
	C769.318115,1365.039185 755.905579,1390.523926 742.491272,1416.007935 
	C729.309692,1441.049438 716.117859,1466.085693 702.938110,1491.128174 
	C686.114197,1523.094849 669.301270,1555.067261 652.477539,1587.033936 
	C639.297852,1612.076538 626.106079,1637.112671 612.924988,1662.154419 
	C599.511169,1687.638672 586.108154,1713.128418 572.689636,1738.610107 
	C570.093750,1743.539551 568.202698,1743.800171 563.635437,1741.133057 
	C554.234985,1735.643799 544.638550,1730.490479 535.126587,1725.192139 
	C531.675415,1723.269775 528.315247,1721.158325 524.751953,1719.475220 
	C523.255798,1718.768433 521.340515,1718.948853 518.940247,1718.810669 
	C511.533844,1715.262817 504.754211,1711.717285 498.080139,1707.983154 
	C459.592896,1686.450073 421.114655,1664.900513 382.675690,1643.281372 
	C376.331177,1639.713135 370.195709,1635.773193 363.963654,1632.004883 
	C365.402649,1630.397705 366.768555,1628.717651 368.291138,1627.194092 
	C424.470520,1570.982300 480.708466,1514.828857 536.847351,1458.576660 
	C665.826050,1329.337769 794.757080,1200.051270 923.712952,1070.789551 
	C925.241455,1069.257446 926.843201,1067.798462 928.697998,1066.136719 
z"/>
<path fill="#EEAE2D" opacity="1.000000" stroke="none" 
	d="
M363.723694,1632.012695 
	C370.195709,1635.773193 376.331177,1639.713135 382.675690,1643.281372 
	C421.114655,1664.900513 459.592896,1686.450073 498.080139,1707.983154 
	C504.754211,1711.717285 511.533844,1715.262817 518.615112,1718.955200 
	C529.017029,1724.862549 539.003784,1730.824829 549.131958,1736.536255 
	C581.295044,1754.673218 613.491821,1772.750610 645.712097,1790.785889 
	C672.273865,1805.653687 698.890259,1820.423950 725.473999,1835.252686 
	C728.522766,1836.953369 731.517273,1838.751343 734.767334,1840.753174 
	C731.393616,1845.307739 727.570923,1845.295532 722.797913,1842.498413 
	C709.597778,1834.762573 696.221313,1827.323486 682.836792,1819.907471 
	C668.592102,1812.014771 654.209900,1804.370117 639.974548,1796.460938 
	C618.602356,1784.587036 597.305603,1772.577148 575.977539,1760.623901 
	C555.953979,1749.401733 535.923279,1738.192627 515.910400,1726.951416 
	C492.563843,1713.837769 469.239258,1700.685059 445.893677,1687.569824 
	C426.026550,1676.408569 406.140869,1665.280640 386.268036,1654.129639 
	C376.986328,1648.921387 367.715912,1643.692993 358.209961,1638.217285 
	C359.542114,1636.173340 361.104706,1634.385742 362.835938,1632.324463 
	C363.004578,1632.050659 363.483765,1632.020508 363.723694,1632.012695 
z"/>
<path fill="#FFA711" opacity="1.000000" stroke="none" 
	d="
M907.869690,571.630676 
	C885.994202,613.979919 863.986816,656.015015 841.968079,698.044128 
	C823.734924,732.847473 805.503052,767.651550 787.243164,802.440796 
	C773.935852,827.794189 760.567810,853.115723 747.255310,878.466431 
	C725.892456,919.147339 704.567200,959.848022 683.197021,1000.525085 
	C674.138916,1017.766663 664.967957,1034.948975 655.917114,1052.194092 
	C637.348450,1087.573975 618.839294,1122.984985 600.280884,1158.370239 
	C586.672180,1184.317871 573.013855,1210.239624 559.395386,1236.182251 
	C538.038391,1276.866333 516.702148,1317.561157 495.346039,1358.245728 
	C481.650543,1384.336182 467.930969,1410.413818 454.229492,1436.501099 
	C433.251221,1476.442993 412.305908,1516.402344 391.294128,1556.326660 
	C379.665314,1578.422241 367.938416,1600.466309 356.223419,1622.516357 
	C355.457367,1623.958252 354.414703,1625.253052 353.176636,1626.740967 
	C352.852539,1626.865479 352.844147,1626.458008 352.816742,1626.256104 
	C355.964844,1605.551758 359.141632,1585.049561 362.315582,1564.546753 
	C365.894989,1541.424561 369.449432,1518.298706 373.056671,1495.181030 
	C376.101624,1475.666504 379.229736,1456.165039 382.278900,1436.651123 
	C385.891113,1413.534180 389.441254,1390.407593 393.049805,1367.290161 
	C396.095978,1347.775391 399.193268,1328.268677 402.256744,1308.756714 
	C405.834412,1285.969971 409.385590,1263.178833 412.974792,1240.393921 
	C416.874176,1215.640015 420.848846,1190.897949 424.709076,1166.137939 
	C429.182922,1137.441650 433.518982,1108.723999 438.005768,1080.029785 
	C442.159637,1053.464966 446.497253,1026.928955 450.636749,1000.362000 
	C454.852844,973.302917 458.856964,946.210693 463.083282,919.153259 
	C466.515991,897.176758 470.203308,875.239990 473.662628,853.267517 
	C477.509064,828.836121 481.184082,804.377869 485.009552,779.943176 
	C488.860596,755.345154 492.853119,730.769287 496.695435,706.169983 
	C501.178375,677.469360 505.526520,648.747681 510.006439,620.046631 
	C513.846313,595.445801 517.843262,570.869446 521.673401,546.267151 
	C526.192810,517.236328 530.546326,488.179565 535.087769,459.152222 
	C538.526184,437.174561 542.209961,415.235382 545.668945,393.260864 
	C549.514954,368.827606 553.187317,344.367035 557.013855,319.930634 
	C560.865906,295.330566 564.874878,270.754974 568.705322,246.151550 
	C573.225159,217.119675 577.549255,188.057190 582.122498,159.033859 
	C583.723389,148.873627 585.811096,138.790115 587.832886,127.987274 
	C587.995605,126.865845 588.001831,126.428711 588.008057,125.991570 
	C588.008057,125.991570 588.026978,125.552322 588.028198,125.333679 
	C591.287354,120.950058 594.292786,116.554871 597.845032,112.658188 
	C617.917114,90.639839 653.791748,96.928444 667.463440,122.822418 
	C683.238403,152.699768 699.232056,182.461838 715.176147,212.249680 
	C735.046753,249.373245 754.954956,286.476776 774.863586,323.579987 
	C791.624756,354.817627 808.425171,386.034271 825.180664,417.274994 
	C847.758545,459.371552 870.310059,501.482300 892.873047,543.586853 
	C897.825989,552.829407 902.779663,562.071594 907.869690,571.630676 
z"/>
<path fill="#FFB943" opacity="1.000000" stroke="none" 
	d="
M587.828003,126.153976 
	C588.001831,126.428711 587.995605,126.865845 587.971558,127.629356 
	C587.851807,127.409271 587.749878,126.862823 587.828003,126.153976 
z"/>
</svg>