<svg version="1.1" id="Layer_1" xmlns="http://www.w3.org/2000/svg" xmlns:xlink="http://www.w3.org/1999/xlink" x="0px" y="0px"
	 width="100%" viewBox="0 0 1200 1200" enable-background="new 0 0 1200 1200" xml:space="preserve">
<path fill="#F7DF1E" opacity="1.000000" stroke="none" 
	d="
M1066.000000,1201.000000 
	C710.666687,1201.000000 355.833344,1201.000000 1.000000,1201.000000 
	C1.000000,801.000000 1.000000,401.000000 1.000000,1.000000 
	C401.000000,1.000000 801.000000,1.000000 1201.000000,1.000000 
	C1201.000000,401.000000 1201.000000,801.000000 1201.000000,1201.000000 
	C1156.166626,1201.000000 1111.333374,1201.000000 1066.000000,1201.000000 
M1084.773804,1033.263550 
	C1088.162231,1026.973877 1091.969116,1020.870544 1094.865967,1014.362061 
	C1106.887939,987.351013 1109.521362,958.916626 1106.908447,929.793396 
	C1103.867554,895.901611 1091.900024,865.851440 1068.276123,840.898560 
	C1050.549316,822.174500 1029.677612,807.506775 1006.727051,796.225647 
	C978.853943,782.524902 950.318726,770.169434 922.048645,757.278748 
	C906.753235,750.304199 891.357178,743.487366 878.375366,732.489380 
	C862.262024,718.838562 857.497803,701.134766 861.814575,681.131714 
	C866.093384,661.304382 879.597961,649.712708 898.933228,645.812683 
	C930.594238,639.426453 956.803955,648.744324 976.059875,675.352112 
	C979.931641,680.701965 983.422363,686.327576 987.224854,692.030212 
	C1016.439209,673.264526 1045.500488,654.597107 1074.529541,635.950439 
	C1052.292480,595.592773 1022.676758,569.435486 987.627075,557.332275 
	C942.202759,541.646606 896.118713,540.981934 850.284546,555.647705 
	C816.133545,566.575134 788.420837,586.786011 770.039856,617.952820 
	C743.894531,662.285034 743.357361,709.142517 759.774963,756.609619 
	C771.489624,790.479187 795.839844,814.334656 825.187561,833.598389 
	C850.073547,849.933594 877.574280,860.951782 904.559692,873.096313 
	C925.446411,882.496094 946.083435,892.539917 966.314758,903.271606 
	C977.306152,909.101990 985.966370,918.127869 990.922913,930.003174 
	C1002.179932,956.973633 990.648987,985.769104 962.665833,997.879578 
	C930.659790,1011.731018 898.297180,1010.020996 866.696411,996.303955 
	C841.962402,985.567688 824.904480,966.048889 810.528564,943.918335 
	C809.387878,942.162354 808.181091,940.449341 806.929626,938.605347 
	C776.243103,956.437378 745.967834,974.030457 715.598755,991.677979 
	C716.115723,992.804260 716.359314,993.405518 716.658875,993.977478 
	C737.001160,1032.814209 766.725525,1062.185425 805.871826,1081.885864 
	C835.894653,1096.994751 867.976196,1104.341919 901.385498,1106.415405 
	C934.249756,1108.455078 966.655212,1105.891357 998.143982,1095.847534 
	C1033.534058,1084.559448 1063.503418,1065.486450 1084.773804,1033.263550 
M654.507141,571.501099 
	C654.507141,565.071838 654.507141,558.642639 654.507141,552.310181 
	C616.559753,552.310181 579.311096,552.310181 541.824402,552.310181 
	C541.824402,554.601501 541.824341,556.583740 541.824341,558.566040 
	C541.824280,682.863708 541.897400,807.161438 541.698792,931.458801 
	C541.681030,942.554688 540.724182,953.797729 538.740417,964.706299 
	C535.923462,980.196167 528.828857,993.721252 513.459290,1000.197998 
	C493.794128,1008.484863 473.600555,1009.040833 453.795135,1000.437256 
	C439.325470,994.151489 429.777802,982.292786 421.422272,969.456482 
	C416.991058,962.649048 412.943115,955.592041 408.570740,948.398560 
	C377.961914,966.930237 347.570892,985.330078 317.235107,1003.696472 
	C333.996216,1041.440552 364.537537,1073.613403 402.076752,1089.976318 
	C447.778564,1109.897339 495.092773,1111.693481 542.908386,1099.908081 
	C593.828247,1087.357544 628.118408,1055.930176 644.616699,1005.809326 
	C652.406555,982.143982 654.526062,957.661987 654.520081,932.897278 
	C654.491150,812.765076 654.507080,692.632935 654.507141,571.501099 
z"/>
<path fill="#010100" opacity="1.000000" stroke="none" 
	d="
M1084.556885,1033.553955 
	C1063.503418,1065.486450 1033.534058,1084.559448 998.143982,1095.847534 
	C966.655212,1105.891357 934.249756,1108.455078 901.385498,1106.415405 
	C867.976196,1104.341919 835.894653,1096.994751 805.871826,1081.885864 
	C766.725525,1062.185425 737.001160,1032.814209 716.658875,993.977478 
	C716.359314,993.405518 716.115723,992.804260 715.598755,991.677979 
	C745.967834,974.030457 776.243103,956.437378 806.929626,938.605347 
	C808.181091,940.449341 809.387878,942.162354 810.528564,943.918335 
	C824.904480,966.048889 841.962402,985.567688 866.696411,996.303955 
	C898.297180,1010.020996 930.659790,1011.731018 962.665833,997.879578 
	C990.648987,985.769104 1002.179932,956.973633 990.922913,930.003174 
	C985.966370,918.127869 977.306152,909.101990 966.314758,903.271606 
	C946.083435,892.539917 925.446411,882.496094 904.559692,873.096313 
	C877.574280,860.951782 850.073547,849.933594 825.187561,833.598389 
	C795.839844,814.334656 771.489624,790.479187 759.774963,756.609619 
	C743.357361,709.142517 743.894531,662.285034 770.039856,617.952820 
	C788.420837,586.786011 816.133545,566.575134 850.284546,555.647705 
	C896.118713,540.981934 942.202759,541.646606 987.627075,557.332275 
	C1022.676758,569.435486 1052.292480,595.592773 1074.529541,635.950439 
	C1045.500488,654.597107 1016.439209,673.264526 987.224854,692.030212 
	C983.422363,686.327576 979.931641,680.701965 976.059875,675.352112 
	C956.803955,648.744324 930.594238,639.426453 898.933228,645.812683 
	C879.597961,649.712708 866.093384,661.304382 861.814575,681.131714 
	C857.497803,701.134766 862.262024,718.838562 878.375366,732.489380 
	C891.357178,743.487366 906.753235,750.304199 922.048645,757.278748 
	C950.318726,770.169434 978.853943,782.524902 1006.727051,796.225647 
	C1029.677612,807.506775 1050.549316,822.174500 1068.276123,840.898560 
	C1091.900024,865.851440 1103.867554,895.901611 1106.908447,929.793396 
	C1109.521362,958.916626 1106.887939,987.351013 1094.865967,1014.362061 
	C1091.969116,1020.870544 1088.162231,1026.973877 1084.556885,1033.553955 
z"/>
<path fill="#000000" opacity="1.000000" stroke="none" 
	d="
M654.507080,572.000916 
	C654.507080,692.632935 654.491150,812.765076 654.520081,932.897278 
	C654.526062,957.661987 652.406555,982.143982 644.616699,1005.809326 
	C628.118408,1055.930176 593.828247,1087.357544 542.908386,1099.908081 
	C495.092773,1111.693481 447.778564,1109.897339 402.076752,1089.976318 
	C364.537537,1073.613403 333.996216,1041.440552 317.235107,1003.696472 
	C347.570892,985.330078 377.961914,966.930237 408.570740,948.398560 
	C412.943115,955.592041 416.991058,962.649048 421.422272,969.456482 
	C429.777802,982.292786 439.325470,994.151489 453.795135,1000.437256 
	C473.600555,1009.040833 493.794128,1008.484863 513.459290,1000.197998 
	C528.828857,993.721252 535.923462,980.196167 538.740417,964.706299 
	C540.724182,953.797729 541.681030,942.554688 541.698792,931.458801 
	C541.897400,807.161438 541.824280,682.863708 541.824341,558.566040 
	C541.824341,556.583740 541.824402,554.601501 541.824402,552.310181 
	C579.311096,552.310181 616.559753,552.310181 654.507141,552.310181 
	C654.507141,558.642639 654.507141,565.071838 654.507080,572.000916 
z"/>
</svg>