<svg version="1.1" id="Layer_1" xmlns="http://www.w3.org/2000/svg" xmlns:xlink="http://www.w3.org/1999/xlink" x="0px" y="0px"
	 width="100%" viewBox="0 0 400 400" enable-background="new 0 0 400 400" xml:space="preserve">
<path fill="#000000" opacity="1.000000" stroke="none" 
	d="
M232.000000,401.000000 
	C154.666672,401.000000 77.833336,401.000000 1.000000,401.000000 
	C1.000000,267.666656 1.000000,134.333328 1.000000,1.000000 
	C134.333328,1.000000 267.666656,1.000000 401.000000,1.000000 
	C401.000000,134.333328 401.000000,267.666656 401.000000,401.000000 
	C344.833344,401.000000 288.666656,401.000000 232.000000,401.000000 
M209.173782,149.985916 
	C199.056183,148.325714 188.987778,146.141586 178.804077,145.185043 
	C171.730453,144.520630 169.556198,147.332626 169.493057,154.299713 
	C169.470459,156.793076 169.428635,159.321167 169.784302,161.777100 
	C171.440140,173.210495 177.559311,182.450256 184.632538,191.154083 
	C187.048828,194.127426 189.759338,196.861664 192.335419,199.705154 
	C190.807281,200.421936 189.976196,200.332321 189.433060,199.889511 
	C176.431046,189.288803 168.054047,175.896683 165.776672,159.154755 
	C165.234985,155.172668 164.012604,154.074448 160.002838,153.881912 
	C132.543015,152.563370 106.881737,159.747528 82.313004,170.880310 
	C57.071243,182.318100 34.240005,197.812408 13.034873,215.652298 
	C11.962306,216.554672 11.321352,217.970062 10.104750,219.670181 
	C11.646857,219.670181 12.160659,219.784210 12.602263,219.653793 
	C33.198418,213.570709 53.969360,210.169128 75.475014,214.405396 
	C90.172203,217.300491 103.276176,223.131409 114.053894,233.682434 
	C117.171700,236.734665 120.017578,240.064667 124.015137,244.374588 
	C124.015137,235.750946 124.144043,228.504211 123.959175,221.265518 
	C123.870598,217.797150 125.202042,216.482132 128.599060,216.531372 
	C135.929260,216.637604 143.268997,216.735703 150.591461,216.469513 
	C154.646011,216.322113 156.986740,217.824875 158.786865,221.433395 
	C162.622742,229.122803 166.846558,236.618652 171.415512,245.133270 
	C175.812515,236.980423 179.833527,229.775620 183.600876,222.440536 
	C185.691910,218.369263 188.302551,216.116547 193.304001,216.429672 
	C200.275482,216.866150 207.299545,216.705643 214.291214,216.485748 
	C218.495773,216.353516 220.170303,217.644150 220.086807,222.156906 
	C219.827911,236.149414 219.984024,250.149811 220.010025,264.147095 
	C220.013245,265.880981 220.203217,267.614532 220.390533,270.753937 
	C222.902420,268.487732 224.779190,267.351929 225.890274,265.700806 
	C232.611603,255.712723 242.328033,250.793137 253.891113,249.626938 
	C263.785400,248.629059 273.769928,248.538040 283.710938,247.981384 
	C285.954651,247.855759 288.183380,247.462509 290.997864,247.122528 
	C289.963409,244.537643 289.287109,242.706329 288.504761,240.921509 
	C286.736053,236.886490 288.047119,234.153732 292.007111,232.575363 
	C293.542664,231.963333 295.119293,231.378571 296.731812,231.046844 
	C317.220367,226.831970 337.746033,222.792419 358.200073,218.417557 
	C365.321686,216.894333 372.418854,214.979507 379.265320,212.515762 
	C388.344116,209.248672 390.671051,200.464386 393.461456,192.578201 
	C394.401276,189.922043 394.046936,185.526169 392.366730,183.585129 
	C390.685455,181.642853 386.607727,181.774918 383.214386,180.903732 
	C381.840973,180.002747 380.055298,178.313019 377.934601,177.524918 
	C365.031036,172.729675 352.283539,167.287170 339.043030,163.678574 
	C318.579468,158.101410 297.819214,153.557617 277.076752,149.075607 
	C258.201874,144.997131 239.053253,142.822815 219.691681,143.534027 
	C215.347549,143.693619 211.031982,144.631058 205.452133,145.377853 
	C208.069519,147.308624 209.379044,148.274628 210.311905,149.662842 
	C210.186523,149.803741 210.061157,149.944641 209.173782,149.985916 
M156.580475,252.973053 
	C156.537399,265.131378 156.538361,277.290131 156.422485,289.447754 
	C156.390686,292.784363 157.608307,294.183044 161.115952,294.078766 
	C168.106827,293.870972 175.116699,293.814056 182.102219,294.099243 
	C186.226196,294.267639 187.692139,292.850281 187.625748,288.728271 
	C187.443314,277.402649 187.578400,266.072052 187.543045,254.743530 
	C187.540375,253.887634 187.184174,253.032852 186.823090,251.423248 
	C181.623322,259.218506 176.885605,266.321106 171.794022,273.954163 
	C167.804504,267.714355 164.393631,262.228424 160.806198,256.860443 
	C159.724533,255.241898 158.152527,253.951035 156.580475,252.973053 
z"/>
<path fill="#870000" opacity="1.000000" stroke="none" 
	d="
M210.688583,149.240631 
	C209.379044,148.274628 208.069519,147.308624 205.452133,145.377853 
	C211.031982,144.631058 215.347549,143.693619 219.691681,143.534027 
	C239.053253,142.822815 258.201874,144.997131 277.076752,149.075607 
	C297.819214,153.557617 318.579468,158.101410 339.043030,163.678574 
	C352.283539,167.287170 365.031036,172.729675 377.934601,177.524918 
	C380.055298,178.313019 381.840973,180.002747 383.214386,180.903732 
	C386.607727,181.774918 390.685455,181.642853 392.366730,183.585129 
	C394.046936,185.526169 394.401276,189.922043 393.461456,192.578201 
	C390.671051,200.464386 388.344116,209.248672 379.265320,212.515762 
	C372.418854,214.979507 365.321686,216.894333 358.200073,218.417557 
	C337.746033,222.792419 317.220367,226.831970 296.731812,231.046844 
	C295.119293,231.378571 293.542664,231.963333 292.007111,232.575363 
	C288.047119,234.153732 286.736053,236.886490 288.504761,240.921509 
	C289.287109,242.706329 289.963409,244.537643 290.997864,247.122528 
	C288.183380,247.462509 285.954651,247.855759 283.710938,247.981384 
	C273.769928,248.538040 263.785400,248.629059 253.891113,249.626938 
	C242.328033,250.793137 232.611603,255.712723 225.890274,265.700806 
	C224.779190,267.351929 222.902420,268.487732 220.390533,270.753937 
	C220.203217,267.614532 220.013245,265.880981 220.010025,264.147095 
	C219.984024,250.149811 219.827911,236.149414 220.086807,222.156906 
	C220.170303,217.644150 218.495773,216.353516 214.291214,216.485748 
	C207.299545,216.705643 200.275482,216.866150 193.304001,216.429672 
	C188.302551,216.116547 185.691910,218.369263 183.600876,222.440536 
	C179.833527,229.775620 175.812515,236.980423 171.415512,245.133270 
	C166.846558,236.618652 162.622742,229.122803 158.786865,221.433395 
	C156.986740,217.824875 154.646011,216.322113 150.591461,216.469513 
	C143.268997,216.735703 135.929260,216.637604 128.599060,216.531372 
	C125.202042,216.482132 123.870598,217.797150 123.959175,221.265518 
	C124.144043,228.504211 124.015137,235.750946 124.015137,244.374588 
	C120.017578,240.064667 117.171700,236.734665 114.053894,233.682434 
	C103.276176,223.131409 90.172203,217.300491 75.475014,214.405396 
	C53.969360,210.169128 33.198418,213.570709 12.602263,219.653793 
	C12.160659,219.784210 11.646857,219.670181 10.104750,219.670181 
	C11.321352,217.970062 11.962306,216.554672 13.034873,215.652298 
	C34.240005,197.812408 57.071243,182.318100 82.313004,170.880310 
	C106.881737,159.747528 132.543015,152.563370 160.002838,153.881912 
	C164.012604,154.074448 165.234985,155.172668 165.776672,159.154755 
	C168.054047,175.896683 176.431046,189.288803 189.433060,199.889511 
	C189.976196,200.332321 190.807281,200.421936 192.335419,199.705154 
	C189.759338,196.861664 187.048828,194.127426 184.632538,191.154083 
	C177.559311,182.450256 171.440140,173.210495 169.784302,161.777100 
	C169.428635,159.321167 169.470459,156.793076 169.493057,154.299713 
	C169.556198,147.332626 171.730453,144.520630 178.804077,145.185043 
	C188.987778,146.141586 199.056183,148.325714 209.718445,150.265366 
	C211.048340,150.603104 211.833588,150.661407 212.618820,150.719696 
	C212.656464,150.533295 212.694092,150.346893 212.731735,150.160492 
	C212.050690,149.853867 211.369629,149.547241 210.688583,149.240631 
M205.852493,209.703812 
	C206.010834,209.681717 206.169159,209.659622 206.327499,209.637512 
	C206.226730,209.418106 206.125961,209.198700 205.694778,208.408844 
	C204.488556,207.914734 203.282318,207.420624 201.755417,206.328186 
	C199.178619,204.475845 196.601807,202.623520 194.024994,200.771179 
	C193.642822,201.350739 193.260635,201.930298 192.878464,202.509872 
	C195.722626,204.266876 198.566788,206.023880 201.870071,208.236725 
	C203.083817,208.673111 204.297577,209.109482 205.852493,209.703812 
M209.954956,197.565598 
	C210.099762,197.565460 210.244583,197.565323 210.389404,197.565170 
	C210.300690,197.339783 210.211975,197.114395 209.917984,196.234619 
	C208.367050,193.799057 206.816101,191.363510 204.988785,188.493927 
	C206.886292,188.493927 208.009216,188.493927 209.686386,188.493927 
	C207.114319,185.199646 204.936462,182.410263 202.758591,179.620865 
	C202.936752,179.323425 203.114914,179.025986 203.293091,178.728546 
	C205.494598,179.285904 207.696106,179.843262 210.421875,180.533356 
	C209.542191,178.156326 208.908936,176.445190 208.063156,174.159790 
	C210.262787,174.772751 211.709534,175.175919 213.156281,175.579071 
	C206.832977,168.428894 198.963226,164.009827 190.284943,161.074142 
	C187.318039,160.070511 184.030701,160.014191 180.889771,159.525070 
	C181.667923,163.268326 181.619034,167.463699 183.373505,170.673248 
	C189.558151,181.987137 198.816528,190.513931 209.954956,197.565598 
M310.568298,175.935638 
	C297.409241,172.556213 284.193176,169.541275 271.314209,169.004089 
	C273.825439,171.110901 276.426849,173.401215 279.149231,175.537338 
	C280.810028,176.840500 282.508362,178.334808 284.445343,179.006912 
	C294.483215,182.489975 304.776367,180.945526 315.002808,180.089386 
	C315.895996,180.014618 316.711975,179.017700 318.609100,177.751358 
	C315.421387,176.998230 313.385620,176.517242 310.568298,175.935638 
M292.259674,219.724564 
	C294.399841,218.825043 296.540039,217.925522 298.680206,217.025986 
	C298.392212,216.407333 298.104218,215.788696 297.816193,215.170044 
	C291.207275,218.227997 284.370117,220.883377 278.056732,224.462585 
	C272.297241,227.727722 272.122986,232.587357 277.528656,238.512421 
	C274.789612,229.161453 279.603027,224.963669 286.526855,222.099686 
	C288.207092,221.404694 289.886383,220.707458 292.259674,219.724564 
M215.476105,176.510529 
	C215.476105,176.510529 215.455292,176.480530 215.476105,176.510529 
M301.475006,214.521530 
	C301.475006,214.521530 301.481354,214.586502 301.475006,214.521530 
z"/>
<path fill="#810000" opacity="1.000000" stroke="none" 
	d="
M156.692810,252.741562 
	C158.152527,253.951035 159.724533,255.241898 160.806198,256.860443 
	C164.393631,262.228424 167.804504,267.714355 171.794022,273.954163 
	C176.885605,266.321106 181.623322,259.218506 186.823090,251.423248 
	C187.184174,253.032852 187.540375,253.887634 187.543045,254.743530 
	C187.578400,266.072052 187.443314,277.402649 187.625748,288.728271 
	C187.692139,292.850281 186.226196,294.267639 182.102219,294.099243 
	C175.116699,293.814056 168.106827,293.870972 161.115952,294.078766 
	C157.608307,294.183044 156.390686,292.784363 156.422485,289.447754 
	C156.538361,277.290131 156.537399,265.131378 156.692810,252.741562 
z"/>
<path fill="#060000" opacity="1.000000" stroke="none" 
	d="
M209.708221,197.305725 
	C198.816528,190.513931 189.558151,181.987137 183.373505,170.673248 
	C181.619034,167.463699 181.667923,163.268326 180.889771,159.525055 
	C184.030701,160.014191 187.318039,160.070511 190.284943,161.074142 
	C198.963226,164.009827 206.832977,168.428894 213.156281,175.579071 
	C211.709534,175.175919 210.262787,174.772751 208.063156,174.159790 
	C208.908936,176.445190 209.542191,178.156326 210.421875,180.533356 
	C207.696106,179.843262 205.494598,179.285904 203.293091,178.728546 
	C203.114914,179.025986 202.936752,179.323425 202.758591,179.620865 
	C204.936462,182.410263 207.114319,185.199646 209.686386,188.493927 
	C208.009216,188.493927 206.886292,188.493927 204.988785,188.493927 
	C206.816101,191.363510 208.367050,193.799057 209.916840,196.665985 
	C209.915695,197.097336 209.708221,197.305725 209.708221,197.305725 
z"/>
<path fill="#090000" opacity="1.000000" stroke="none" 
	d="
M310.959076,175.985962 
	C313.385620,176.517242 315.421387,176.998230 318.609100,177.751358 
	C316.711975,179.017700 315.895996,180.014618 315.002808,180.089386 
	C304.776367,180.945526 294.483215,182.489975 284.445343,179.006912 
	C282.508362,178.334808 280.810028,176.840500 279.149231,175.537338 
	C276.426849,173.401215 273.825439,171.110901 271.314209,169.004089 
	C284.193176,169.541275 297.409241,172.556213 310.959076,175.985962 
z"/>
<path fill="#160000" opacity="1.000000" stroke="none" 
	d="
M291.912903,219.867905 
	C289.886383,220.707458 288.207092,221.404694 286.526855,222.099686 
	C279.603027,224.963669 274.789612,229.161453 277.528656,238.512421 
	C272.122986,232.587357 272.297241,227.727722 278.056732,224.462585 
	C284.370117,220.883377 291.207275,218.227997 297.816193,215.170044 
	C298.104218,215.788696 298.392212,216.407333 298.680206,217.025986 
	C296.540039,217.925522 294.399841,218.825043 291.912903,219.867905 
z"/>
<path fill="#000000" opacity="1.000000" stroke="none" 
	d="
M201.410950,207.780899 
	C198.566788,206.023880 195.722626,204.266876 192.878464,202.509872 
	C193.260635,201.930298 193.642822,201.350739 194.024994,200.771179 
	C196.601807,202.623520 199.178619,204.475845 201.749237,206.840759 
	C201.632339,207.495865 201.521637,207.638382 201.410950,207.780899 
z"/>
<path fill="#000000" opacity="1.000000" stroke="none" 
	d="
M205.511322,209.545853 
	C204.297577,209.109482 203.083817,208.673111 201.640503,208.008820 
	C201.521637,207.638382 201.632339,207.495865 201.909576,207.139923 
	C203.282318,207.420624 204.488556,207.914734 205.729919,208.834259 
	C205.765060,209.259674 205.511322,209.545853 205.511322,209.545853 
z"/>
<path fill="#000000" opacity="1.000000" stroke="none" 
	d="
M210.500244,149.451721 
	C211.369629,149.547241 212.050690,149.853867 212.731735,150.160492 
	C212.694092,150.346893 212.656464,150.533295 212.618820,150.719696 
	C211.833588,150.661407 211.048340,150.603104 210.099426,150.315170 
	C210.061157,149.944641 210.186523,149.803741 210.500244,149.451721 
z"/>
<path fill="#060000" opacity="1.000000" stroke="none" 
	d="
M215.465698,176.495529 
	C215.455292,176.480530 215.476105,176.510529 215.465698,176.495529 
z"/>
<path fill="#060000" opacity="1.000000" stroke="none" 
	d="
M210.019485,196.993179 
	C210.211975,197.114395 210.300690,197.339783 210.389404,197.565170 
	C210.244583,197.565323 210.099762,197.565460 209.831589,197.435669 
	C209.708221,197.305725 209.915695,197.097336 210.019485,196.993179 
z"/>
<path fill="#000000" opacity="1.000000" stroke="none" 
	d="
M205.895126,209.119476 
	C206.125961,209.198700 206.226730,209.418106 206.327499,209.637512 
	C206.169159,209.659622 206.010834,209.681717 205.681915,209.624832 
	C205.511322,209.545853 205.765060,209.259674 205.895126,209.119476 
z"/>
<path fill="#160000" opacity="1.000000" stroke="none" 
	d="
M301.478180,214.554016 
	C301.481354,214.586502 301.475006,214.521530 301.478180,214.554016 
z"/>
</svg>