<?xml version="1.0" encoding="UTF-8"?>
<svg version="1.1" xmlns="http://www.w3.org/2000/svg" width="512" height="512">
<path d="M0 0 C0.66 0 1.32 0 2 0 C2.35191406 0.73524902 2.70382813 1.47049805 3.06640625 2.22802734 C4.40565758 5.01012092 5.75645194 7.78624191 7.11474609 10.55908203 C7.97715071 12.32812934 8.82664986 14.1034497 9.67578125 15.87890625 C14.67854252 26.05693781 20.89431751 34.30639094 29.0625 42.125 C33.60686042 46.5802137 37.89571118 51.13826732 42 56 C42.80695313 56.9178125 43.61390625 57.835625 44.4453125 58.78125 C55.79358326 71.77216905 65.60405875 85.93708938 74 101 C74.4640625 101.83241211 74.928125 102.66482422 75.40625 103.52246094 C89.32409939 128.75762406 99.66415065 155.89152426 105.875 184.0625 C106.16165527 185.361875 106.16165527 185.361875 106.45410156 186.6875 C109.59067672 201.82958697 110.37848565 216.64963135 110.3125 232.0625 C110.30968018 233.01353607 110.30686035 233.96457214 110.30395508 234.94442749 C110.15684756 267.98151505 103.91873932 298.8726083 90 329 C89.61086426 329.85239258 89.22172852 330.70478516 88.82080078 331.58300781 C77.16542127 356.82280138 60.63465338 377.53770961 41.0625 397.125 C40.23298828 397.96675781 39.40347656 398.80851562 38.54882812 399.67578125 C33.6526579 404.58336446 28.64000222 409.02508588 23.08398438 413.17602539 C17.20456376 418.32189599 15.8182963 425.94956659 15.19189453 433.38916016 C14.77073612 441.31401124 14.89941032 449.25406744 14.9375 457.1875 C14.94252544 459.01627482 14.9470865 460.84505097 14.95117188 462.67382812 C14.96209381 467.11591895 14.97930077 471.55794441 15 476 C13.56208479 475.69797973 12.12518206 475.39113647 10.6887207 475.08227539 C9.48829887 474.82674644 9.48829887 474.82674644 8.2636261 474.5660553 C5.35910815 473.83973492 3.28851424 472.9454628 1 471 C0.36328125 468.78515625 0.36328125 468.78515625 0.3125 466.0625 C0.23902344 464.45955078 0.23902344 464.45955078 0.1640625 462.82421875 C0.08285156 460.93123047 0.08285156 460.93123047 0 459 C-0.71396466 448.88254424 -1.79690918 438.90932951 -4 429 C-4.16604736 428.25282715 -4.33209473 427.5056543 -4.50317383 426.73583984 C-6.02377321 420.27534732 -7.35677771 417.22222614 -12.625 413.1875 C-29.82271357 399.46088458 -44.79741448 383.55757091 -58 366 C-58.62986816 365.17145508 -58.62986816 365.17145508 -59.27246094 364.32617188 C-88.3150261 325.92015675 -104.50544996 279.02223443 -104.375 230.875 C-104.37445618 230.10608429 -104.37391235 229.33716858 -104.37335205 228.54495239 C-104.32174027 212.45343117 -102.723045 196.87463403 -100 181 C-99.82291504 179.91122559 -99.64583008 178.82245117 -99.46337891 177.70068359 C-94.10000325 145.88578221 -81.54421911 114.59381573 -65 87 C-64.50685303 86.1450293 -64.01370605 85.29005859 -63.50561523 84.40917969 C-60.13414954 78.61810008 -56.3722818 73.35265324 -52.1875 68.125 C-48.29954876 63.224682 -44.50660691 58.32730892 -40.9375 53.1875 C-32.64389606 41.9982165 -21.75815118 31.54532995 -11.05859375 22.6640625 C-4.00198772 16.74192558 -1.10532609 8.95695281 0 0 Z " fill="#4EAA40" transform="translate(253,18)"/>
</svg>
