<svg width="970" height="970" viewBox="0 0 970 970" fill="none" xmlns="http://www.w3.org/2000/svg">
<rect x="4" y="4" width="962" height="962" rx="342" fill="#1E1E1E" stroke="#4CAF50" stroke-width="8"/>
<rect x="1.5" y="1.5" width="967" height="967" rx="334.5" fill="#5D63EC" fill-opacity="0.12" stroke="#4CAF50" stroke-width="3"/>
<path d="M303.227 776V485.091H477.659V516.341H338.455V614.636H464.591V645.886H338.455V776H303.227Z" fill="white"/>
<path d="M688.318 342.818C686.614 328.424 679.701 317.25 667.58 309.295C655.458 301.341 640.591 297.364 622.977 297.364C610.098 297.364 598.83 299.447 589.17 303.614C579.606 307.78 572.125 313.509 566.727 320.801C561.424 328.093 558.773 336.379 558.773 345.659C558.773 353.424 560.619 360.1 564.312 365.688C568.1 371.18 572.93 375.773 578.801 379.466C584.672 383.064 590.828 386.047 597.267 388.415C603.706 390.687 609.625 392.534 615.023 393.955L644.568 401.909C652.144 403.898 660.572 406.644 669.852 410.148C679.227 413.652 688.176 418.434 696.699 424.494C705.316 430.46 712.419 438.131 718.006 447.506C723.593 456.881 726.386 468.386 726.386 482.023C726.386 497.742 722.267 511.947 714.028 524.636C705.884 537.326 693.953 547.411 678.233 554.892C662.608 562.373 643.621 566.114 621.273 566.114C600.439 566.114 582.4 562.752 567.153 556.028C552.002 549.305 540.07 539.93 531.358 527.903C522.741 515.877 517.864 501.909 516.727 486H553.091C554.038 496.985 557.731 506.076 564.17 513.273C570.705 520.375 578.943 525.678 588.886 529.182C598.924 532.591 609.72 534.295 621.273 534.295C634.72 534.295 646.794 532.117 657.494 527.761C668.195 523.311 676.67 517.155 682.92 509.295C689.17 501.341 692.295 492.061 692.295 481.455C692.295 471.795 689.597 463.936 684.199 457.875C678.801 451.814 671.699 446.89 662.892 443.102C654.085 439.314 644.568 436 634.341 433.159L598.545 422.932C575.818 416.398 557.826 407.07 544.568 394.949C531.311 382.828 524.682 366.966 524.682 347.364C524.682 331.076 529.085 316.871 537.892 304.75C546.794 292.534 558.725 283.064 573.688 276.341C588.744 269.523 605.553 266.114 624.114 266.114C642.864 266.114 659.53 269.475 674.114 276.199C688.697 282.828 700.25 291.919 708.773 303.472C717.39 315.025 721.936 328.14 722.409 342.818H688.318Z" fill="#50C878"/>
<path d="M340.159 486H303.227L410.045 195.091H446.409L553.227 486H516.295L429.364 241.114H427.091L340.159 486ZM353.795 372.364H502.659V403.614H353.795V372.364Z" fill="white"/>
<rect x="238" y="190" width="36" height="587" fill="#50C878"/>
<path d="M424.059 745.217L446.956 721.145L424.059 697.073" stroke="#4CAF50" stroke-width="2" stroke-linecap="round" stroke-linejoin="round"/>
<path d="M393.53 697.073L370.633 721.145L393.53 745.217" stroke="#4CAF50" stroke-width="2" stroke-linecap="round" stroke-linejoin="round"/>
<path d="M528.473 761.266H581.899C583.924 761.266 585.865 760.42 587.296 758.915C588.728 757.411 589.532 755.37 589.532 753.241V701.085L570.451 681.024H536.105C534.081 681.024 532.139 681.87 530.708 683.374C529.277 684.879 528.473 686.92 528.473 689.048V705.097" stroke="#4CAF50" stroke-width="2" stroke-linecap="round" stroke-linejoin="round"/>
<path d="M566.635 681.024V697.072C566.635 699.201 567.439 701.242 568.87 702.746C570.302 704.251 572.243 705.097 574.267 705.097H589.532" stroke="#4CAF50" stroke-width="2" stroke-linecap="round" stroke-linejoin="round"/>
<path d="M532.288 721.145L520.84 733.181L532.288 745.217" stroke="#4CAF50" stroke-width="2" stroke-linecap="round" stroke-linejoin="round"/>
<path d="M547.553 745.217L559.001 733.181L547.553 721.145" stroke="#4CAF50" stroke-width="2" stroke-linecap="round" stroke-linejoin="round"/>
<path d="M739.737 737.193V701.084C739.737 698.956 738.933 696.915 737.501 695.411C736.07 693.906 734.129 693.06 732.105 693.06H686.31C684.286 693.06 682.345 693.906 680.913 695.411C679.482 696.915 678.678 698.956 678.678 701.084V737.193M739.737 737.193H678.678M739.737 737.193L744.622 747.424C744.916 748.038 745.055 748.721 745.026 749.407C744.997 750.094 744.801 750.761 744.456 751.345C744.111 751.929 743.63 752.41 743.057 752.742C742.485 753.074 741.841 753.246 741.187 753.241H677.228C676.574 753.246 675.93 753.074 675.357 752.742C674.785 752.41 674.303 751.929 673.959 751.345C673.614 750.761 673.418 750.094 673.389 749.407C673.36 748.721 673.499 748.038 673.793 747.424L678.678 737.193" stroke="#4CAF50" stroke-width="2" stroke-linecap="round" stroke-linejoin="round"/>
<rect x="428" y="485" width="75" height="31.5" fill="#FFFCFC"/>
<rect x="441" y="615" width="308" height="31" fill="white"/>
<rect x="504.383" y="449.385" width="32.8547" height="78.5218" transform="rotate(-20.2753 504.383 449.385)" fill="url(#paint0_linear_183_85)"/>
<path d="M526.5 518.5L514.5 481.5H531.5L541.5 509L526.5 518.5Z" fill="url(#paint1_linear_183_85)"/>
<path d="M526.5 519L517 490L506.5 457.5L493.5 454L502.5 472.5L506.5 499.5L521.5 539H540.5L534.5 532L530.5 527L526.5 519Z" fill="#252636" stroke="#252636"/>
<rect x="364" y="665" width="386" height="111" fill="white" fill-opacity="0.06"/>
<rect x="339" y="615" width="432" height="31" fill="#50C878"/>
<defs>
<linearGradient id="paint0_linear_183_85" x1="524.565" y1="491.851" x2="520.214" y2="527.835" gradientUnits="userSpaceOnUse">
<stop stopColor="white"/>
<stop offset="1" stopColor="#50C878"/>
</linearGradient>
<linearGradient id="paint1_linear_183_85" x1="528" y1="491" x2="535" y2="515.5" gradientUnits="userSpaceOnUse">
<stop stopColor="white"/>
<stop offset="1" stopColor="#50C878"/>
</linearGradient>
</defs>
</svg>
