<svg width="356" height="379" viewBox="0 0 356 379" fill="none" xmlns="http://www.w3.org/2000/svg">
<path d="M2.50704 283.296L0 208.085L172.986 303.352H183.014V298.338V288.31L2.50704 180.507V90.2536L57.662 52.648L67.6901 47.6339H72.7042V132.873L258.225 253.211L260.732 343.465L198.056 378.563H152.93L2.50704 283.296Z" fill="#6741C9"/>
<path d="M353.493 95.2676L356 170.479L183.014 75.2112L172.986 75.2112L172.986 80.2253L172.986 90.2535L353.493 198.056L353.493 288.31L298.338 325.915L288.31 330.93L283.296 330.93L283.296 245.69L97.7747 125.352L95.2676 35.0986L157.944 -1.73146e-05L203.07 -1.33695e-05L353.493 95.2676Z" fill="#6741C9"/>
</svg>
